<svg width="19" height="18" viewBox="0 0 19 18" fill="none" xmlns="http://www.w3.org/2000/svg">
<path fill-rule="evenodd" clip-rule="evenodd" d="M14.168 -0.00390625L5.16797 -0.00390625C2.69319 -0.00390625 0.667969 2.02042 0.667969 4.49609L0.667969 13.4961C0.667969 15.9709 2.69319 17.9961 5.16797 17.9961H14.168C16.6427 17.9961 18.668 15.9709 18.668 13.4961V4.49609C18.668 2.02042 16.6427 -0.00390625 14.168 -0.00390625ZM9.66805 12.746C7.59669 12.746 5.91797 11.0666 5.91797 8.99617C5.91797 6.92482 7.59669 5.24609 9.66805 5.24609C11.7385 5.24609 13.4181 6.92482 13.4181 8.99617C13.4181 11.0666 11.7385 12.746 9.66805 12.746ZM13.4179 4.12099C13.4179 4.74221 13.921 5.24599 14.5429 5.24599C15.1648 5.24599 15.6679 4.74221 15.6679 4.12099C15.6679 3.49976 15.1648 2.99599 14.5429 2.99599C13.921 2.99599 13.4179 3.49976 13.4179 4.12099Z" fill="#64748B"/>
</svg>
