<svg width="22" height="22" viewBox="0 0 22 22" fill="none" xmlns="http://www.w3.org/2000/svg">
<path d="M11.0007 20.1615C5.93804 20.1615 1.83398 16.0574 1.83398 10.9948C1.83398 5.93218 5.93804 1.82813 11.0007 1.82813C16.0632 1.82813 20.1673 5.93218 20.1673 10.9948C20.1673 16.0574 16.0632 20.1615 11.0007 20.1615ZM8.14996 12.068L8.16155 12.0607C8.69297 13.8151 8.95868 14.6923 8.95868 14.6923C9.06159 14.977 9.20309 15.0278 9.37478 15.0046C9.54638 14.9813 9.6375 14.8884 9.74951 14.7803C9.74951 14.7803 10.1128 14.4297 10.8393 13.7286L13.1777 15.4588C13.6037 15.6942 13.9114 15.5727 14.0171 15.0627L15.5368 7.89317C15.7045 7.22584 15.4103 6.95819 14.8928 7.17004L5.97089 10.6163C5.36222 10.861 5.36516 11.2015 5.86008 11.3533L8.14996 12.068Z" fill="#FF7676"/>
</svg>
